HIERARCHY
ROOT Hips
{
	OFFSET 0.000000 0.000000 0.000000
	CHANNELS 6 Xposition Yposition Zposition Xrotation Yrotation Zrotation
	JOINT LeftUpLeg_virtual
	{
		OFFSET 0.000000 0.000000 0.000000
		CHANNELS 3 Xrotation Yrotation Zrotation
		JOINT LeftUpLeg
		{
			OFFSET 11.394100 -6.187798 -0.413800
			CHANNELS 3 Xrotation Yrotation Zrotation
			JOINT LeftLeg
			{
				OFFSET 0.430247 -32.302673 3.732800
				CHANNELS 3 Xrotation Yrotation Zrotation
				JOINT LeftFoot
				{
					OFFSET -0.430247 -48.264931 -6.423300
					CHANNELS 3 Xrotation Yrotation Zrotation
					JOINT LeftToeBase
					{
						OFFSET 4.230900 -16.068199 23.438400
						CHANNELS 3 Xrotation Yrotation Zrotation
						JOINT LeftToe_End
						{
							OFFSET 4.510700 0.695400 19.974600
							CHANNELS 3 Xrotation Yrotation Zrotation
							End Site
							{
								OFFSET 0 0 0
							}
						}
					}
				}
			}
		}
	}
	JOINT RightUpLeg_virtual
	{
		OFFSET 0.000000 0.000000 0.000000
		CHANNELS 3 Xrotation Yrotation Zrotation
		JOINT RightUpLeg
		{
			OFFSET -11.333700 -6.187798 -0.413800
			CHANNELS 3 Xrotation Yrotation Zrotation
			JOINT RightLeg
			{
				OFFSET -0.430392 -32.302628 3.733000
				CHANNELS 3 Xrotation Yrotation Zrotation
				JOINT RightFoot
				{
					OFFSET 0.430392 -48.264973 -6.423500
					CHANNELS 3 Xrotation Yrotation Zrotation
					JOINT RightToeBase
					{
						OFFSET -4.230900 -16.068199 23.438400
						CHANNELS 3 Xrotation Yrotation Zrotation
						JOINT RightToe_End
						{
							OFFSET -4.510700 0.695400 19.974600
							CHANNELS 3 Xrotation Yrotation Zrotation
							End Site
							{
								OFFSET 0 0 0
							}
						}
					}
				}
			}
		}
	}
	JOINT Spine_virtual
	{
		OFFSET 0.000000 0.000000 0.000000
		CHANNELS 3 Xrotation Yrotation Zrotation
		JOINT Spine
		{
			OFFSET -0.002400 12.777504 0.315300
			CHANNELS 3 Xrotation Yrotation Zrotation
			JOINT Spine1
			{
				OFFSET -0.002067 5.816869 0.032633
				CHANNELS 3 Xrotation Yrotation Zrotation
				JOINT Spine1_split
				{
					OFFSET -0.002067 5.816869 0.032633
					CHANNELS 3 Xrotation Yrotation Zrotation
					JOINT Spine2
					{
						OFFSET -0.002067 5.816869 0.032633
						CHANNELS 3 Xrotation Yrotation Zrotation
						JOINT Neck_virtual
						{
							OFFSET 0.000000 0.000000 0.000000
							CHANNELS 3 Xrotation Yrotation Zrotation
							JOINT Neck
							{
								OFFSET -0.003700 21.199493 -0.826900
								CHANNELS 3 Xrotation Yrotation Zrotation
								JOINT Head
								{
									OFFSET 0.000000 20.442200 4.834800
									CHANNELS 3 Xrotation Yrotation Zrotation
									JOINT HeadTop_End
									{
										OFFSET 0.000000 34.668396 4.968400
										CHANNELS 3 Xrotation Yrotation Zrotation
										End Site
										{
											OFFSET 0 0 0
										}
									}
								}
							}
						}
						JOINT LeftShoulder_virtual
						{
							OFFSET 0.000000 0.000000 0.000000
							CHANNELS 3 Xrotation Yrotation Zrotation
							JOINT LeftShoulder
							{
								OFFSET 3.288150 8.794197 -1.372250
								CHANNELS 3 Xrotation Yrotation Zrotation
								JOINT LeftShoulder_split
								{
									OFFSET 3.288150 8.794197 -1.372250
									CHANNELS 3 Xrotation Yrotation Zrotation
									JOINT LeftArm
									{
										OFFSET 11.953299 -2.279007 -0.146200
										CHANNELS 3 Xrotation Yrotation Zrotation
										JOINT LeftForeArm
										{
											OFFSET 18.448900 0.000000 0.000000
											CHANNELS 3 Xrotation Yrotation Zrotation
											JOINT LeftHand
											{
												OFFSET 29.527798 0.000000 0.000000
												CHANNELS 3 Xrotation Yrotation Zrotation
												End Site
												{
													OFFSET 0 0 0
												}
											}
										}
									}
								}
							}
						}
						JOINT RightShoulder_virtual
						{
							OFFSET 0.000000 0.000000 0.000000
							CHANNELS 3 Xrotation Yrotation Zrotation
							JOINT RightShoulder
							{
								OFFSET -3.249400 8.794197 -1.372250
								CHANNELS 3 Xrotation Yrotation Zrotation
								JOINT RightShoulder_split
								{
									OFFSET -3.249400 8.794197 -1.372250
									CHANNELS 3 Xrotation Yrotation Zrotation
									JOINT RightArm
									{
										OFFSET -11.953299 -2.279007 -0.146200
										CHANNELS 3 Xrotation Yrotation Zrotation
										JOINT RightForeArm
										{
											OFFSET -18.448900 0.000000 0.000000
											CHANNELS 3 Xrotation Yrotation Zrotation
											JOINT RightHand
											{
												OFFSET -29.527802 0.000000 0.000000
												CHANNELS 3 Xrotation Yrotation Zrotation
												End Site
												{
													OFFSET 0 0 0
												}
											}
										}
									}
								}
							}
						}
					}
				}
			}
		}
	}
}
MOTION
Frames: 8
Frame Time: 0.03333333
-0.422719 125.070435 9.125954 0.000000 0.000000 0.000000 8.122482 -39.034080 4.488498 -93.577239 -19.640153 20.714567 73.164781 0.244367 2.605567 22.293936 0.814501 -0.358894 -6.506007 2.851351 -1.686045 0.000000 0.000000 0.000000 7.755557 -41.007558 3.746234 -139.677027 -37.653289 -11.319424 116.019383 9.526114 -17.638975 51.861917 7.939353 25.487783 12.037087 6.328934 -9.460167 0.000000 0.000000 0.000000 7.171342 -40.403936 2.678711 32.171967 -7.246976 -7.883199 12.762107 0.972093 -3.701305 0.353746 1.611659 1.069460 0.000000 0.000000 0.000000 12.585026 0.867229 -2.512018 -7.709585 18.587716 -13.962042 -27.588234 11.075436 4.457771 0.000000 0.000000 0.000000 13.975545 1.228414 -2.974334 13.184604 -18.380206 4.879408 1.790442 -4.531889 -3.272441 -59.076280 -10.215782 -6.040327 47.992389 -16.408146 29.614720 0.000000 0.000000 0.000000 14.858814 1.167869 -3.071072 18.779699 25.762784 -7.295379 0.084224 3.598567 3.057365 -35.074562 2.033981 8.609248 -43.546943 48.400117 33.407804 0.000000 0.000000 0.000000 
-0.405984 125.060493 9.108047 0.000000 0.000000 0.000000 8.092908 -39.324818 4.630371 -93.439536 -19.552680 20.835171 73.054665 0.200431 2.439081 22.150594 1.014077 -0.532395 -6.457435 2.839609 -1.711744 0.000000 0.000000 0.000000 7.756663 -41.272019 3.887064 -139.208599 -37.672646 -11.271119 115.685960 9.766707 -17.610895 51.528409 7.750291 25.158766 12.019498 6.323797 -9.624992 0.000000 0.000000 0.000000 7.082710 -40.536312 2.774718 32.145076 -7.257061 -7.931555 12.737545 0.987346 -3.685693 0.299513 1.620404 1.079913 0.000000 0.000000 0.000000 12.624262 0.869176 -2.518099 -7.693558 18.592004 -13.974550 -27.345231 11.143587 4.316954 0.000000 0.000000 0.000000 13.942784 1.243803 -2.952573 12.907226 -18.461704 4.189267 1.947113 -4.623573 -3.535175 -58.261302 -9.620525 -5.913829 47.850574 -16.313137 29.349695 0.000000 0.000000 0.000000 14.839462 1.152351 -3.078293 18.298615 26.182229 -6.295825 0.079571 3.688141 3.039678 -33.982602 1.897804 8.544178 -43.663586 48.147445 33.328936 0.000000 0.000000 0.000000 
-0.404137 125.047142 9.108402 0.000000 0.000000 0.000000 8.138041 -39.523081 4.791855 -93.257204 -19.495614 20.894556 72.877784 0.114693 2.273849 21.885833 1.270530 -0.696763 -6.441258 2.809599 -1.697592 0.000000 0.000000 0.000000 7.807144 -41.435571 4.033025 -138.718150 -37.644014 -11.181026 115.402658 9.994623 -17.593930 51.141045 7.602774 24.895942 11.953979 6.318002 -9.763666 0.000000 0.000000 0.000000 7.033877 -40.664624 2.894054 32.060573 -7.260303 -7.963301 12.698620 0.998240 -3.673909 0.266058 1.620793 1.094239 0.000000 0.000000 0.000000 12.642229 0.874791 -2.533562 -7.611243 18.584736 -13.997857 -27.042112 11.208310 4.214446 0.000000 0.000000 0.000000 13.906935 1.259120 -2.935141 12.677489 -18.467693 3.603776 2.012356 -4.737016 -3.812342 -57.341788 -8.786993 -5.634039 47.697769 -16.351831 29.150749 0.000000 0.000000 0.000000 14.810145 1.141980 -3.088348 17.859169 26.549958 -5.432236 0.073301 3.742034 3.092148 -33.039148 1.532148 8.363743 -43.746918 47.795034 33.194682 0.000000 0.000000 0.000000 
-0.419115 125.040283 9.088326 0.000000 0.000000 0.000000 8.237877 -39.593814 4.965754 -93.034717 -19.479066 20.878819 72.646643 -0.000906 2.116285 21.541722 1.574150 -0.840476 -6.464965 2.765446 -1.642715 0.000000 0.000000 0.000000 7.895776 -41.504259 4.192640 -138.227265 -37.573250 -11.097296 115.157549 10.210682 -17.586380 50.698667 7.518606 24.699996 11.864164 6.316056 -9.890467 0.000000 0.000000 0.000000 7.011179 -40.778948 3.040554 31.934918 -7.265288 -7.981286 12.659993 1.003434 -3.668076 0.277543 1.640224 1.156923 0.000000 0.000000 0.000000 12.644455 0.884642 -2.558271 -7.502264 18.562214 -14.013081 -26.702196 11.249778 4.165133 0.000000 0.000000 0.000000 13.871271 1.273749 -2.925039 12.483444 -18.408494 3.071748 1.963866 -4.813422 -4.096496 -56.333068 -7.689076 -5.269568 47.610366 -16.570382 29.078841 0.000000 0.000000 0.000000 14.773148 1.137208 -3.099065 17.465627 26.860993 -4.676232 0.089126 3.757544 3.207642 -32.306354 1.136568 8.135159 -43.708576 47.311836 32.924326 0.000000 0.000000 0.000000 
-0.454302 125.046371 9.062023 0.000000 0.000000 0.000000 8.345135 -39.562132 5.147953 -92.767800 -19.491401 20.807270 72.370868 -0.132322 1.960567 21.150816 1.918571 -0.955896 -6.520690 2.716730 -1.567711 0.000000 0.000000 0.000000 8.020037 -41.509942 4.378252 -137.751405 -37.471569 -11.072298 114.955021 10.406820 -17.559993 50.230191 7.489391 24.544276 11.758463 6.323489 -10.013046 0.000000 0.000000 0.000000 7.006703 -40.871299 3.202393 31.785378 -7.274806 -7.991618 12.621529 1.008952 -3.673389 0.321540 1.669453 1.181435 0.000000 0.000000 0.000000 12.625538 0.901622 -2.592559 -7.394807 18.530641 -14.019354 -26.351245 11.272575 4.180024 0.000000 0.000000 0.000000 13.829958 1.287061 -2.924153 12.299245 -18.298210 2.516984 1.808964 -4.801240 -4.300771 -55.299927 -6.295089 -4.841202 47.680902 -17.017946 29.188790 0.000000 0.000000 0.000000 14.724252 1.138505 -3.111127 17.114646 27.107622 -3.984428 0.099611 3.722185 3.371014 -31.747177 0.845468 7.894114 -43.548234 46.731567 32.535685 0.000000 0.000000 0.000000 
-0.496580 125.065735 9.040020 0.000000 0.000000 0.000000 8.455831 -39.472705 5.347480 -92.473460 -19.510263 20.692762 72.070223 -0.273124 1.808873 20.753325 2.275263 -1.048045 -6.586102 2.671662 -1.490075 0.000000 0.000000 0.000000 8.145467 -41.497661 4.586973 -137.316077 -37.343192 -11.136447 114.800262 10.587996 -17.513729 49.777947 7.512825 24.414677 11.626456 6.342600 -10.140339 0.000000 0.000000 0.000000 6.987678 -40.929489 3.366402 31.635483 -7.286604 -7.992289 12.583523 1.016910 -3.684720 0.356118 1.670689 1.200939 0.000000 0.000000 0.000000 12.582597 0.925342 -2.628656 -7.315580 18.490212 -14.012905 -26.001108 11.256778 4.248995 0.000000 0.000000 0.000000 13.776927 1.303122 -2.928636 12.106057 -18.119423 1.883448 1.562861 -4.728322 -4.380290 -54.345315 -4.658487 -4.381049 47.919931 -17.625655 29.465692 0.000000 0.000000 0.000000 14.661088 1.146208 -3.119905 16.797699 27.283080 -3.315117 0.091555 3.615656 3.549008 -31.331492 0.661276 7.677618 -43.269286 46.065364 32.047903 0.000000 0.000000 0.000000 
-0.550812 125.095291 9.029423 0.000000 0.000000 0.000000 8.524994 -39.366205 5.554400 -92.162522 -19.498867 20.580473 71.764244 -0.428611 1.663833 20.378172 2.595975 -1.140948 -6.617076 2.632131 -1.424039 0.000000 0.000000 0.000000 8.248345 -41.473691 4.811995 -136.945511 -37.189834 -11.290182 114.685734 10.756791 -17.448172 49.381178 7.581262 24.304405 11.437493 6.375991 -10.264721 0.000000 0.000000 0.000000 6.935148 -40.939327 3.503755 31.498189 -7.297415 -7.984433 12.538308 1.027903 -3.691089 0.382096 1.698001 1.174056 0.000000 0.000000 0.000000 12.512691 0.952013 -2.659975 -7.274981 18.436356 -13.995908 -25.650495 11.198735 4.346386 0.000000 0.000000 0.000000 13.710952 1.320612 -2.931776 11.896391 -17.847272 1.166531 1.230311 -4.607252 -4.394940 -53.528124 -2.806307 -3.904507 48.224315 -18.224895 29.796810 0.000000 0.000000 0.000000 14.578262 1.158536 -3.113246 16.498868 27.351475 -2.644600 0.015500 3.519551 3.669964 -30.947382 0.478076 7.515228 -42.981151 45.417380 31.595837 0.000000 0.000000 0.000000 
-0.606229 125.139130 9.050278 0.000000 0.000000 0.000000 8.550563 -39.283642 5.761248 -91.832119 -19.433884 20.510783 71.460656 -0.601271 1.533179 20.028229 2.846929 -1.258155 -6.593273 2.599538 -1.373025 0.000000 0.000000 0.000000 8.304311 -41.461260 5.028667 -136.629274 -37.033067 -11.486848 114.620328 10.912235 -17.373688 49.056611 7.666321 24.198728 11.181875 6.420019 -10.359817 0.000000 0.000000 0.000000 6.856876 -40.904924 3.601660 31.382824 -7.300793 -7.969449 12.476639 1.045460 -3.682961 0.378987 1.738360 1.094164 0.000000 0.000000 0.000000 12.405975 0.981736 -2.676856 -7.263413 18.366478 -13.984915 -25.311306 11.088514 4.448844 0.000000 0.000000 0.000000 13.633215 1.342576 -2.928550 11.674390 -17.451190 0.398776 0.880101 -4.517521 -4.309455 -52.882135 -0.847098 -3.436771 48.492796 -18.672677 30.074429 0.000000 0.000000 0.000000 14.481372 1.182529 -3.086413 16.221595 27.301093 -1.982635 -0.153990 3.456018 3.738052 -30.556788 0.108387 7.422584 -42.809023 44.907609 31.334289 0.000000 0.000000 0.000000 
